<svg width="26.000000" height="17.000000" viewBox="0 0 26 17" fill="none" xmlns="http://www.w3.org/2000/svg" xmlns:xlink="http://www.w3.org/1999/xlink">
	<desc>
			Created with Pixso.
	</desc>
	<defs/>
	<path id="Vector" d="M25.5 8C25.5 7.74 25.4 7.5 25.22 7.33C25.05 7.15 24.81 7.05 24.57 7.05L2.67 7.05L8.51 1.11C8.6 1.02 8.67 0.92 8.71 0.8C8.76 0.69 8.78 0.56 8.78 0.44C8.78 0.32 8.76 0.19 8.71 0.08C8.67 -0.04 8.6 -0.14 8.51 -0.23C8.42 -0.32 8.32 -0.39 8.21 -0.43C8.1 -0.48 7.98 -0.5 7.85 -0.5C7.73 -0.5 7.61 -0.48 7.5 -0.43C7.38 -0.39 7.28 -0.32 7.2 -0.23L-0.23 7.33C-0.32 7.41 -0.39 7.52 -0.43 7.63C-0.48 7.75 -0.5 7.87 -0.5 8C-0.5 8.12 -0.48 8.24 -0.43 8.36C-0.39 8.47 -0.32 8.58 -0.23 8.66L7.2 16.22C7.28 16.31 7.38 16.38 7.5 16.42C7.61 16.47 7.73 16.5 7.85 16.5C7.98 16.5 8.1 16.47 8.21 16.42C8.32 16.38 8.42 16.31 8.51 16.22C8.6 16.13 8.67 16.03 8.71 15.91C8.76 15.8 8.78 15.67 8.78 15.55C8.78 15.43 8.76 15.3 8.71 15.19C8.67 15.07 8.6 14.97 8.51 14.88L2.67 8.94L24.57 8.94C24.81 8.94 25.05 8.84 25.22 8.66C25.4 8.49 25.5 8.25 25.5 8Z" fill="#FFFFFF" fill-opacity="1.000000" fill-rule="evenodd"/>
</svg>
