<svg width="40.000000" height="40.000000" viewBox="0 0 40 40" fill="none" xmlns="http://www.w3.org/2000/svg" xmlns:xlink="http://www.w3.org/1999/xlink">
	<desc>
			Created with Pixso.
	</desc>
	<defs>
		<clipPath id="clip6_71">
			<rect id="function=consult" width="40.000000" height="40.000000" fill="white" fill-opacity="0"/>
		</clipPath>
	</defs>
	<rect id="function=consult" width="40.000000" height="40.000000" fill="#FFFFFF" fill-opacity="0"/>
	<g clip-path="url(#clip6_71)">
		<rect id="Rectangle 20" y="16.666748" width="23.333332" height="23.333334" fill="#7595FD" fill-opacity="1.000000"/>
		<path id="Vector" d="M18.33 10L23.33 10L28.81 4.5C28.97 4.34 29.15 4.21 29.35 4.13C29.56 4.05 29.77 4 30 4C30.22 4 30.43 4.05 30.64 4.13C30.84 4.21 31.02 4.34 31.18 4.5L35.48 8.81C35.79 9.12 35.96 9.55 35.96 9.99C35.96 10.43 35.79 10.85 35.48 11.16L31.66 15L18.33 15L18.33 18.33C18.33 18.77 18.15 19.19 17.84 19.51C17.53 19.82 17.1 20 16.66 20C16.22 20 15.8 19.82 15.48 19.51C15.17 19.19 15 18.77 15 18.33L15 13.33C15 12.44 15.35 11.6 15.97 10.97C16.6 10.35 17.44 10 18.33 10ZM8.33 18.33L8.33 25L4.51 28.81C4.2 29.12 4.03 29.55 4.03 29.99C4.03 30.43 4.2 30.85 4.51 31.16L8.81 35.48C8.97 35.63 9.15 35.76 9.35 35.84C9.56 35.93 9.77 35.97 9.99 35.97C10.22 35.97 10.43 35.93 10.64 35.84C10.84 35.76 11.02 35.63 11.18 35.48L18.33 28.33L25 28.33C25.44 28.33 25.86 28.15 26.17 27.84C26.49 27.53 26.66 27.1 26.66 26.66L26.66 25L28.33 25C28.77 25 29.19 24.82 29.51 24.51C29.82 24.19 30 23.77 30 23.33L30 21.66L31.66 21.66C32.1 21.66 32.53 21.49 32.84 21.17C33.15 20.86 33.33 20.44 33.33 20L33.33 18.33L21.66 18.33L21.66 20C21.66 20.88 21.31 21.73 20.69 22.35C20.06 22.98 19.21 23.33 18.33 23.33L15 23.33C14.11 23.33 13.26 22.98 12.64 22.35C12.01 21.73 11.66 20.88 11.66 20L11.66 15L8.33 18.33Z" fill="#292E3D" fill-opacity="1.000000" fill-rule="nonzero"/>
	</g>
</svg>
