<svg width="33.000000" height="33.000000" viewBox="0 0 33 33" fill="none" xmlns="http://www.w3.org/2000/svg" xmlns:xlink="http://www.w3.org/1999/xlink">
	<desc>
			Created with Pixso.
	</desc>
	<defs/>
	<path id="Vector" d="M32.31 24.43L23.06 15.18L25.68 12.56L19.43 6.31L16.81 8.93L7.56 -0.32L-0.32 7.56L8.93 16.81L1 24.75L1 31L7.25 31L15.18 23.06L24.43 32.31L32.31 24.43ZM11.3 14.45L4.4 7.56L7.56 4.4L9.68 6.51L7.7 8.5L10.05 10.85L12.03 8.86L14.45 11.28L11.3 14.45ZM17.54 20.7L20.71 17.53L23.13 19.95L21.15 21.93L23.5 24.28L25.48 22.3L27.6 24.41L24.43 27.58L17.54 20.7ZM21.22 4.53L25.45 0.3L31.69 6.55L27.46 10.78L21.22 4.53Z" fill="#F9995D" fill-opacity="1.000000" fill-rule="nonzero"/>
</svg>
