<svg width="40.000000" height="40.000000" viewBox="0 0 40 40" fill="none" xmlns="http://www.w3.org/2000/svg" xmlns:xlink="http://www.w3.org/1999/xlink">
	<desc>
			Created with Pixso.
	</desc>
	<defs/>
	<path id="Vector" d="M0 20.11C0 30.05 7.22 38.32 16.66 40L16.66 25.55L11.66 25.55L11.66 20L16.66 20L16.66 15.55C16.66 10.55 19.88 7.77 24.44 7.77C25.88 7.77 27.44 8 28.88 8.22L28.88 13.33L26.33 13.33C23.88 13.33 23.33 14.55 23.33 16.11L23.33 20L28.66 20L27.77 25.55L23.33 25.55L23.33 40C32.77 38.32 40 30.05 40 20.11C40 9.04 31 0 20 0C9 0 0 9.04 0 20.11Z" fill="#3D445C" fill-opacity="1.000000" fill-rule="evenodd"/>
</svg>
