<svg width="37.000000" height="37.000000" viewBox="0 0 37 37" fill="none" xmlns="http://www.w3.org/2000/svg" xmlns:xlink="http://www.w3.org/1999/xlink">
	<desc>
			Created with Pixso.
	</desc>
	<defs/>
	<path id="Vector" d="M33 11.33C33.88 11.33 34.73 11.68 35.35 12.3C35.98 12.93 36.33 13.78 36.33 14.66L36.33 21.33C36.33 22.21 35.98 23.06 35.35 23.69C34.73 24.31 33.88 24.66 33 24.66L31.23 24.66C30.82 27.88 29.25 30.85 26.81 33C24.38 35.14 21.24 36.33 18 36.33L18 33C20.65 33 23.19 31.94 25.07 30.07C26.94 28.19 28 25.65 28 23L28 13C28 10.34 26.94 7.8 25.07 5.92C23.19 4.05 20.65 3 18 3C15.34 3 12.8 4.05 10.92 5.92C9.05 7.8 8 10.34 8 13L8 24.66L3 24.66C2.11 24.66 1.26 24.31 0.64 23.69C0.01 23.06 -0.34 22.21 -0.34 21.33L-0.34 14.66C-0.34 13.78 0.01 12.93 0.64 12.3C1.26 11.68 2.11 11.33 3 11.33L4.77 11.33C5.17 8.11 6.74 5.14 9.18 3C11.61 0.85 14.75 -0.34 18 -0.34C21.24 -0.34 24.38 0.85 26.81 3C29.25 5.14 30.82 8.11 31.23 11.33L33 11.33ZM10.93 24.3L12.7 21.48C14.28 22.47 16.12 23 18 23C19.87 23 21.71 22.47 23.29 21.48L25.06 24.3C22.94 25.63 20.49 26.33 18 26.33C15.5 26.33 13.05 25.63 10.93 24.3Z" fill="#F9995D" fill-opacity="1.000000" fill-rule="nonzero"/>
</svg>
