<svg width="39.000000" height="39.000000" viewBox="0 0 39 39" fill="none" xmlns="http://www.w3.org/2000/svg" xmlns:xlink="http://www.w3.org/1999/xlink">
	<desc>
			Created with Pixso.
	</desc>
	<defs/>
	<path id="Vector" d="M19 -0.21C8.39 -0.21 -0.21 8.39 -0.21 19C-0.21 29.6 8.39 38.19 19 38.19C29.6 38.19 38.2 29.6 38.2 19C38.2 8.39 29.6 -0.21 19 -0.21ZM14.3 26.95L10.41 26.95L10.41 14.44L14.3 14.44L14.3 26.95ZM12.33 12.9C11.1 12.9 10.31 12.04 10.31 10.96C10.31 9.86 11.12 9.02 12.38 9.02C13.63 9.02 14.4 9.86 14.42 10.96C14.42 12.04 13.63 12.9 12.33 12.9ZM28.5 26.95L24.61 26.95L24.61 20.02C24.61 18.4 24.04 17.31 22.64 17.31C21.56 17.31 20.93 18.05 20.64 18.77C20.54 19.02 20.51 19.38 20.51 19.74L20.51 26.95L16.62 26.95L16.62 18.43C16.62 16.87 16.57 15.56 16.52 14.44L19.9 14.44L20.08 16.18L20.16 16.18C20.67 15.36 21.92 14.16 24.02 14.16C26.58 14.16 28.5 15.87 28.5 19.55L28.5 26.95Z" fill="#3D445C" fill-opacity="1.000000" fill-rule="nonzero"/>
</svg>
