<svg width="108.000000" height="22.000000" viewBox="0 0 108 22" fill="none" xmlns="http://www.w3.org/2000/svg" xmlns:xlink="http://www.w3.org/1999/xlink">
	<desc>
			Created with Pixso.
	</desc>
	<defs/>
	<path id="TheBox" d="M6.36 2.98L-0.32 2.98L0.32 -0.82L18.24 -0.82L17.6 2.98L10.92 2.98L7.94 21L3.37 21L6.36 2.98ZM27.34 8.19C25.48 8.19 23.98 9.42 23.63 11.53L22.05 21L17.52 21L21.15 -0.82L25.55 -0.82L24.19 7.52L24.36 7.52C25.42 5.59 27.28 4.42 29.77 4.42C33.17 4.42 35.05 6.74 34.41 10.57L32.66 21L28.13 21L29.73 11.39C30.06 9.37 29.17 8.19 27.34 8.19ZM64.95 21L55.62 21L55.62 -0.82L64.36 -0.82C69.17 -0.82 71.6 1.5 71.6 4.77C71.6 7.34 69.93 8.95 67.66 9.46L67.66 9.67C70.14 9.79 72.45 11.74 72.45 14.97C72.45 18.44 69.85 21 64.95 21ZM60.24 2.9L60.24 8.31L63.66 8.31C65.54 8.31 66.94 7.26 66.94 5.53C66.94 3.96 65.79 2.9 63.74 2.9L60.24 2.9ZM51.88 16.31C50.72 19.35 47.7 21.32 43.63 21.32C38.59 21.32 36.05 18.07 36.92 12.89C37.77 7.84 41.45 4.42 46.27 4.42C50.61 4.42 53.5 7.17 52.58 12.73L52.37 13.97L41.23 13.97L41.21 14.09C40.79 16.67 41.96 17.93 44.28 17.93C45.79 17.93 47.07 17.27 47.73 16.03L51.88 16.31ZM90.81 12.88C90.81 17.92 87.72 21.32 82.76 21.32C77.79 21.32 74.7 17.92 74.7 12.88C74.7 7.8 77.79 4.42 82.76 4.42C87.72 4.42 90.81 7.8 90.81 12.88ZM92.27 4.63L96.96 4.63L99.96 10.35L103.04 4.63L107.69 4.63L102.95 12.81L107.82 21L103.19 21L99.96 15.34L96.79 21L92.1 21L96.96 12.81L92.27 4.63ZM45.81 7.8C43.86 7.8 42.12 9.36 41.74 11.16L48.55 11.16C48.87 9.21 47.77 7.8 45.81 7.8ZM79.31 12.84C79.31 15.7 80.49 17.8 82.78 17.8C85.03 17.8 86.2 15.7 86.2 12.84C86.2 9.99 85.03 7.88 82.78 7.88C80.49 7.88 79.31 9.99 79.31 12.84ZM60.24 11.43L60.24 17.22L63.99 17.22C66.57 17.22 67.69 16.15 67.69 14.51C67.69 12.7 66.31 11.43 64.1 11.43L60.24 11.43Z" fill="#2947A9" fill-opacity="1.000000" fill-rule="evenodd"/>
</svg>
