<svg width="38.000000" height="48.000000" viewBox="0 0 38 48" fill="none" xmlns="http://www.w3.org/2000/svg" xmlns:xlink="http://www.w3.org/1999/xlink">
	<desc>
			Created with Pixso.
	</desc>
	<defs/>
	<path id="Vector" d="M19 36.66L19 47.5L38 36.52L38 25.69L19 36.66Z" fill="#2947A9" fill-opacity="1.000000" fill-rule="nonzero"/>
	<path id="Vector" d="M27.5 15.74L36.88 10.32L19 0L19 10.83L27.5 15.74Z" fill="#0B267D" fill-opacity="1.000000" fill-rule="nonzero"/>
	<path id="Vector" d="M11.61 18.97L11.61 29.81L19 34.07L19 23.24L11.61 18.97Z" fill="#91A1D4" fill-opacity="1.000000" fill-rule="nonzero"/>
	<path id="Vector" d="M38 12.27L19 23.24L19 34.07L38 23.1L38 12.27Z" fill="#2947A9" fill-opacity="1.000000" fill-rule="nonzero"/>
	<path id="Vector" d="M1.13 10.32L10.44 15.77L19 10.83L19 0L1.13 10.32Z" fill="#2947A9" fill-opacity="1.000000" fill-rule="nonzero"/>
	<path id="Vector" d="M9.37 31.11L9.37 17.68L0 12.26L0 36.52L19 47.5L19 36.66L9.37 31.11Z" fill="#91A1D4" fill-opacity="1.000000" fill-rule="nonzero"/>
</svg>
