<svg width="40.000000" height="40.000000" viewBox="0 0 40 40" fill="none" xmlns="http://www.w3.org/2000/svg" xmlns:xlink="http://www.w3.org/1999/xlink">
	<desc>
			Created with Pixso.
	</desc>
	<defs>
		<clipPath id="clip6_92">
			<rect id="function=renovation" width="40.000000" height="40.000000" transform="translate(-0.500000 0.000000)" fill="white" fill-opacity="0"/>
		</clipPath>
	</defs>
	<rect id="function=renovation" width="40.000000" height="40.000000" transform="translate(-0.500000 0.000000)" fill="#FFFFFF" fill-opacity="0"/>
	<g clip-path="url(#clip6_92)">
		<rect id="Rectangle 20" x="-0.500000" y="16.666748" width="23.333332" height="23.333334" fill="#7595FD" fill-opacity="1.000000"/>
		<path id="Vector" d="M32 4.99C30.89 5 29.83 5.44 29.05 6.22C28.27 7 27.83 8.06 27.83 9.16C27.83 9.76 27.96 10.32 28.19 10.84L24.93 14.5C23.82 13.74 22.51 13.33 21.16 13.33C19.93 13.33 18.79 13.69 17.8 14.27L14.01 10.48L13.97 10.52C14.3 9.86 14.5 9.12 14.5 8.33C14.5 7.34 14.2 6.37 13.65 5.55C13.1 4.73 12.32 4.09 11.41 3.71C10.49 3.33 9.49 3.23 8.52 3.42C7.55 3.62 6.66 4.09 5.96 4.79C5.26 5.49 4.78 6.38 4.59 7.35C4.4 8.32 4.5 9.33 4.88 10.24C5.25 11.16 5.89 11.94 6.72 12.49C7.54 13.04 8.51 13.33 9.5 13.33C10.29 13.33 11.02 13.13 11.69 12.8L11.65 12.84L15.44 16.63C14.83 17.65 14.5 18.81 14.5 19.99C14.5 21.66 15.13 23.16 16.14 24.33L11.84 28.62C11.36 28.43 10.85 28.33 10.33 28.33C8.03 28.33 6.16 30.2 6.16 32.49C6.16 34.79 8.03 36.66 10.33 36.66C12.63 36.66 14.5 34.79 14.5 32.49C14.5 31.96 14.39 31.45 14.2 30.98L18.93 26.25C19.63 26.5 20.37 26.66 21.16 26.66C24.84 26.66 27.83 23.67 27.83 19.99C27.83 18.93 27.56 17.95 27.12 17.05L30.64 13.08C31.07 13.23 31.52 13.33 32 13.33C34.29 13.33 36.16 11.46 36.16 9.16C36.16 6.86 34.29 4.99 32 4.99ZM21.16 23.33C19.32 23.33 17.83 21.83 17.83 19.99C17.83 18.16 19.32 16.66 21.16 16.66C23 16.66 24.5 18.16 24.5 19.99C24.5 21.83 23 23.33 21.16 23.33Z" fill="#FFFFFF" fill-opacity="1.000000" fill-rule="nonzero"/>
	</g>
</svg>
