<svg width="39.000000" height="39.000000" viewBox="0 0 39 39" fill="none" xmlns="http://www.w3.org/2000/svg" xmlns:xlink="http://www.w3.org/1999/xlink">
	<desc>
			Created with Pixso.
	</desc>
	<defs/>
	<path id="Vector" d="M19 -0.21C8.39 -0.21 -0.2 8.39 -0.2 19C-0.2 29.6 8.39 38.19 19 38.19C29.6 38.19 38.2 29.6 38.2 19C38.2 8.39 29.6 -0.21 19 -0.21ZM26.81 15.52C26.81 15.69 26.82 15.85 26.82 16.01C26.82 21.01 23.01 26.77 16.06 26.77C14 26.78 11.99 26.19 10.26 25.07C10.56 25.11 10.86 25.12 11.16 25.12C12.94 25.12 14.57 24.52 15.86 23.5C15.07 23.49 14.31 23.23 13.67 22.76C13.04 22.29 12.57 21.63 12.33 20.88C12.89 20.99 13.48 20.97 14.03 20.81C13.18 20.64 12.41 20.18 11.85 19.5C11.3 18.83 11 17.98 11 17.11L11 17.06C11.51 17.34 12.09 17.52 12.71 17.54C11.91 17 11.34 16.18 11.13 15.24C10.91 14.3 11.06 13.32 11.54 12.48C12.49 13.65 13.68 14.61 15.02 15.29C16.36 15.97 17.83 16.36 19.34 16.44C19.15 15.63 19.23 14.77 19.57 14.01C19.91 13.25 20.5 12.63 21.23 12.24C21.97 11.84 22.81 11.7 23.63 11.84C24.46 11.97 25.21 12.38 25.78 12.99C26.63 12.82 27.44 12.51 28.18 12.07C27.9 12.95 27.31 13.69 26.52 14.16C27.27 14.07 28 13.87 28.69 13.56C28.18 14.32 27.55 14.99 26.81 15.52Z" fill="#3D445C" fill-opacity="1.000000" fill-rule="nonzero"/>
</svg>
